HIERARCHY
ROOT pelvis
{
  OFFSET 0 100 0
  CHANNELS 6 Xposition Yposition Zposition Zrotation Xrotation Yrotation
  JOINT pelvis_right_femur
  {
    OFFSET -10.78128 -3.44521 -0.5502486
    CHANNELS 3 Zrotation Xrotation Yrotation
    JOINT right_femur_tibia
    {
      OFFSET -0.8047443 -44.0398 -0.1307829
      CHANNELS 3 Zrotation Xrotation Yrotation
      JOINT right_tibia_foot
      {
        OFFSET 3.006224 -47.83518 -5
        CHANNELS 3 Zrotation Xrotation Yrotation
        End Site
        {
          OFFSET 0 -5 15
        }
      }
    }
  }
  JOINT pelvis_left_femur
  {
    OFFSET 10.78128 -3.44521 -0.5502486
    CHANNELS 3 Zrotation Xrotation Yrotation
    JOINT left_femur_tibia
    {
      OFFSET 0.8047443 -44.0398 -0.1307829
      CHANNELS 3 Zrotation Xrotation Yrotation
      JOINT left_tibia_foot
      {
        OFFSET -4.370144 -48.10324 -4.275266
        CHANNELS 3 Zrotation Xrotation Yrotation
        End Site
        {
          OFFSET 0 -5 15
        }
      }
    }
  }
  JOINT pelvis_spine1
  {
    OFFSET 0 6.468898 -3.129235
    CHANNELS 3 Zrotation Xrotation Yrotation
    JOINT spine1
    {
      OFFSET 0 23.15396 4.99043
      CHANNELS 3 Zrotation Xrotation Yrotation
      JOINT spine2
      {
        OFFSET 0 20.79997 -5.064912
        CHANNELS 3 Zrotation Xrotation Yrotation
        JOINT neck
        {
          OFFSET 0 14.38658 9.616178
          CHANNELS 3 Zrotation Xrotation Yrotation
          End Site
          {
            OFFSET 0 20 0
          }
        }
      }
      JOINT right_manubrium
      {
        OFFSET -5.722621 16.35077 3.967754
        CHANNELS 3 Zrotation Xrotation Yrotation
        JOINT right_clavicle
        {
          OFFSET -13.16364 1.694482 -4.693211
          CHANNELS 3 Zrotation Xrotation Yrotation
          JOINT right_humerus
          {
            OFFSET -28.5034 -0.3100689 -2.792744
            CHANNELS 3 Zrotation Xrotation Yrotation
            JOINT right_radius
            {
              OFFSET -25.15693 0.02248979 -1.271978
              CHANNELS 3 Zrotation Xrotation Yrotation
              End Site
              {
                OFFSET -15 0 0
              }
            }
          }
        }
      }
      JOINT left_manubrium
      {
        OFFSET 5.722621 16.35077 3.967754
        CHANNELS 3 Zrotation Xrotation Yrotation
        JOINT left_clavicle
        {
          OFFSET 13.16364 1.694482 -4.693211
          CHANNELS 3 Zrotation Xrotation Yrotation
          JOINT left_humerus
          {
            OFFSET 29.39168 -1.063119 -2.237045
            CHANNELS 3 Zrotation Xrotation Yrotation
            JOINT left_radius
            {
              OFFSET 24.59957 -0.9528479 0.9047498
              CHANNELS 3 Zrotation Xrotation Yrotation
              End Site
              {
                OFFSET 15 -0 -0
              }
            }
          }
        }
      }
    }
  }
}
MOTION
Frames: 19
Frame Time: 0.0416666666667
1716.04 96.92489 2630.4 -0.6025205 2.557853 65.34073 2.700391 -30.7416 1.049887 -0 0.8426393 -0 -0.2564195 12.55859 -7.11198 -8.000212 20.4014 -5.888126 -0 16.51796 -0 -2.979073 -21.68322 8.928699 -3.523367 -3.229616 3.898074 4.338017 11.8338 -11.56983 -0.449246 16.60352 6.684413 4.193522 -23.53898 4.015471 4.061729 -16.72286 11.80619 89.91451 23.79783 -28.67496 -0 0 5.591335 -16.42576 8.428429 10.74133 8.695625 -25.51159 -4.070372 -83.68403 14.44521 10.42979 0 0 -32.54732 5.313709 3.003768 6.892568
1723.208 95.83513 2633.603 -0.8409013 1.667854 66.23039 4.414907 -28.25406 4.281735 -0 5.469599 -0 0.316286 10.66307 -8.291493 -6.623235 18.3288 -5.983526 -0 21.65341 -0 -4.979257 -18.5599 8.691122 -3.039814 -2.694876 3.827593 4.697952 11.75693 -11.51352 -0.4562318 16.07444 6.621651 4.279844 -23.62741 3.818569 5.324042 -16.26913 12.0693 88.35549 25.11118 -27.57523 -0 0 6.976894 -14.80753 8.128055 10.24871 7.874279 -24.33689 -3.510697 -84.69361 15.35606 12.25075 0 0 -28.84802 3.766725 1.340404 9.101746
1729.987 94.85646 2636.913 1.585737 -0.2822704 66.60503 4.644991 -25.23426 4.679991 -0 9.548015 -0 0.3606005 3.386969 -9.208538 -4.683973 17.46473 -6.421178 -0 27.95052 -0 -6.460876 -15.48925 10.02787 -2.323738 -1.48237 2.962723 3.514981 10.71161 -10.08672 0.7022892 18.38388 6.231918 3.389902 -20.25006 5.405087 4.749218 -14.03834 11.30877 89.08982 27.55936 -25.57319 -0 0 6.790437 -16.6368 12.17214 9.091663 7.052104 -23.28058 -3.621382 -82.89797 18.40537 8.080666 0 0 -27.52544 3.102471 4.411692 9.759237
1736.416 94.40661 2640.484 4.668437 -2.695218 66.55318 4.674533 -22.91289 3.741783 -0 16.21633 -0 0.2301499 -3.996468 -9.685659 -2.869355 18.70839 -7.829483 -0 34.4975 -0 -7.811002 -13.08455 12.02203 -1.035175 -0.6326685 1.716606 1.46114 9.317347 -8.030236 2.399428 21.69087 6.116861 2.075465 -16.12201 8.378782 3.353775 -11.10783 10.15797 91.17911 29.90122 -23.67154 -0 0 5.576752 -20.58775 18.68856 8.219934 6.641229 -22.31823 -3.812243 -80.1462 21.51645 1.737156 0 0 -27.49037 3.732286 10.39335 8.726876
1742.646 94.69604 2644.281 7.321017 -4.654584 66.27036 4.691086 -21.02406 2.856888 -0 23.93096 -0 0.3925601 -8.969896 -10.13648 -1.767731 20.88464 -9.598016 -0 40.00189 -0 -9.006068 -11.94103 13.80175 0.002987705 -0.1912 0.6986598 -0.2763621 8.048165 -6.197068 3.911207 24.32722 6.095162 0.9736007 -13.04861 11.10913 2.167244 -8.537003 9.134587 92.80787 31.03858 -21.94489 -0 0 4.467597 -23.85949 23.84316 7.739547 6.565976 -21.16429 -3.793322 -78.39478 23.34767 -3.183388 0 0 -26.36394 4.878991 15.59587 6.752491
1748.768 95.70161 2648.112 9.586462 -5.767624 65.86704 4.635656 -17.62215 2.713544 -0 29.76735 -0 1.083215 -11.20373 -10.52448 -1.607494 21.21052 -10.70467 -0 46.37314 -0 -9.880489 -11.32685 15.36586 0.3752659 0.1508747 0.5640785 -1.214419 7.430423 -4.807141 4.923928 25.7825 5.872226 0.4214889 -11.35985 12.53566 1.552163 -7.254633 8.556283 92.98274 30.48383 -20.02564 -0 0 4.406697 -25.36723 25.91319 7.424892 6.379596 -19.67515 -3.723436 -78.79106 23.96724 -4.34386 0 0 -23.08763 5.241075 18.03051 5.447026
1754.782 97.26321 2651.77 11.17809 -6.03144 65.3033 4.646056 -12.14242 3.361722 -0 31.40472 -0 1.996233 -10.99999 -10.3321 -2.147992 17.64777 -10.50554 -0 53.85953 -0 -10.19979 -10.41274 16.74609 0.2445049 0.4880573 1.561911 -1.388949 7.841498 -3.923455 5.259404 26.02426 5.52377 0.5411579 -11.10321 12.40693 1.535007 -7.852198 8.671913 91.74039 28.70925 -18.06093 -0 0 5.767317 -25.56155 25.15063 7.557701 5.884015 -18.33521 -3.794513 -81.18309 23.76583 -1.271658 0 0 -19.02153 4.271162 17.55795 5.889382
1760.638 99.02338 2655.133 11.49916 -5.538528 64.49039 4.749703 -6.099467 4.521145 -0 28.1872 -0 2.352918 -9.522212 -9.365293 -2.676701 10.19929 -9.007834 -0 59.40911 -0 -9.778728 -9.193184 17.55774 -0.2049594 0.7937968 3.341779 -0.8840502 9.125797 -3.749935 4.823853 25.22471 5.143429 1.185325 -12.16659 10.84818 2.005327 -10.20599 9.501431 89.51777 26.57722 -16.45237 -0 0 8.301877 -24.56224 22.02577 8.1997 5.180916 -17.78091 -3.984052 -84.34667 23.01193 4.458608 0 0 -16.33613 2.5256 14.72067 7.881704
1766.298 100.5161 2658.198 10.55972 -4.602877 63.4695 4.855041 -1.033339 5.697862 -0 22.26092 -0 1.814468 -8.588659 -7.838938 -2.512246 0.6675014 -6.82264 -0 60.19581 -0 -8.822513 -8.045664 17.68483 -0.7483217 1.039156 5.230799 -0.03295109 10.55861 -4.164471 3.865151 23.97169 4.762708 1.912256 -13.86674 8.572972 2.648665 -13.39761 10.68021 86.92203 24.87467 -15.13418 -0 0 11.4356 -22.62807 17.62181 9.09979 4.53846 -18.05676 -4.094719 -86.94585 22.16567 10.3435 0 0 -15.92416 1.056415 10.91688 10.29071
1771.793 101.4032 2661.037 9.262961 -3.74966 62.425 4.818031 2.834245 6.433929 -0 17.22913 -0 1.113716 -9.289782 -6.334315 -1.686727 -8.114363 -4.858576 -0 56.19624 -0 -7.916677 -7.403587 17.68217 -1.135731 1.227486 6.644229 0.5792923 11.33756 -4.552984 2.963876 23.00966 4.441206 2.308545 -15.16995 6.704311 2.969205 -16.20521 11.58101 84.61843 23.736 -13.57624 -0 0 14.60144 -20.79157 13.703 9.97591 4.220556 -18.41286 -3.968009 -88.56235 21.70187 14.63753 0 0 -16.45026 0.290356 7.954887 12.09147
1777.22 101.5889 2663.728 8.458928 -3.321104 61.48125 4.569919 6.281056 6.734021 -0 14.89711 -0 1.181154 -11.26737 -5.285517 -0.7218632 -14.63871 -3.641004 -0 49.33597 -0 -7.455505 -7.391267 18.12341 -1.265351 1.372873 7.483262 0.6591133 11.30871 -4.459278 2.505524 22.59045 4.176508 2.299646 -15.59956 5.77097 2.683357 -18.17634 11.88485 82.91226 22.51497 -11.43869 -0 0 17.70392 -19.82819 11.1119 10.69299 4.218861 -18.12645 -3.67167 -89.7334 21.66932 17.43464 0 0 -16.09714 -0.2137129 6.433428 13.22821
1782.713 101.1826 2666.331 8.098088 -3.242432 60.63603 4.186045 9.650313 6.820249 -0 14.92333 -0 2.049466 -13.50049 -4.562991 0.092409 -19.19534 -3.049982 -0 41.3623 -0 -7.3845 -7.746888 18.85732 -1.196809 1.441955 7.959665 0.3671381 10.82721 -3.99545 2.405083 22.45326 3.972577 2.072463 -15.49628 5.52982 1.999251 -19.5653 11.75018 81.70951 21.02937 -8.964514 -0 0 20.7806 -19.69758 9.591245 11.30646 4.346181 -17.2416 -3.340263 -90.8846 21.83037 19.58836 0 0 -14.63253 -0.8011486 5.821267 14.08756
1788.404 100.4072 2668.906 7.771225 -3.256347 59.86675 3.739851 12.66154 6.74985 -0 16.56025 -0 3.133761 -15.05479 -3.90801 0.6505923 -22.31705 -2.846529 -0 33.73253 -0 -7.490326 -8.144388 19.39773 -1.076395 1.391329 8.23776 -0.04224796 10.2243 -3.463504 2.432924 22.33635 3.890599 1.847625 -15.37327 5.613399 1.313269 -20.56847 11.43583 80.8388 19.84277 -6.647383 -0 0 23.49613 -20.09643 8.809883 11.87699 4.453232 -16.18466 -3.023374 -91.9807 22.02346 21.49974 0 0 -12.73854 -1.41688 5.630873 14.83959
1794.369 99.51546 2671.507 7.339629 -3.182309 59.19422 3.225355 14.99736 6.48958 -0 19.34652 -0 3.908419 -15.32208 -3.295891 0.8187496 -24.16083 -2.962103 -0 27.73309 -0 -7.57274 -8.417602 19.51032 -1.065332 1.210409 8.373548 -0.4224835 9.692887 -3.047476 2.467918 22.18573 3.959538 1.744715 -15.46864 5.821634 0.8792187 -21.17865 11.1057 80.23477 19.44607 -4.887299 -0 0 25.33286 -20.82256 8.633468 12.41576 4.46661 -15.29262 -2.742222 -92.8202 22.21779 23.07818 0 0 -10.9825 -1.901454 5.702614 15.44888
1800.608 98.73345 2674.165 6.952367 -2.982299 58.67637 2.613142 16.52512 6.072675 -0 23.04525 -0 4.17493 -14.13081 -2.867884 0.4904651 -24.73582 -3.394739 -0 24.10269 -0 -7.486322 -8.567786 19.28118 -1.265059 0.933521 8.378999 -0.7220007 9.341561 -2.799745 2.48955 22.06577 4.132879 1.77159 -15.74718 6.061603 0.7508743 -21.36827 10.83825 79.94809 19.83457 -3.886829 -0 0 25.994 -21.70152 8.900977 12.90159 4.369208 -14.70612 -2.536235 -93.26789 22.41813 24.11487 0 0 -9.602381 -2.169343 5.968992 15.8489
1807.063 98.22206 2676.883 6.825859 -2.731667 58.37585 1.921339 17.24638 5.612193 -0 27.52169 -0 4.057752 -11.76697 -2.757589 -0.2994494 -24.12234 -4.085885 -0 22.74271 -0 -7.194501 -8.693983 18.93147 -1.661521 0.6329831 8.256114 -0.940094 9.203808 -2.697058 2.511847 22.0458 4.320493 1.863124 -16.04996 6.279062 0.8368188 -21.19786 10.65209 80.06552 20.58505 -3.632292 -0 0 25.59465 -22.50903 9.332465 13.28667 4.18665 -14.39614 -2.449309 -93.33933 22.61054 24.53525 0 0 -8.578744 -2.237924 6.321364 16.02894
1813.644 98.06686 2679.635 7.046154 -2.533203 58.33307 1.223885 17.20278 5.214337 -0 32.59484 -0 3.811077 -8.787289 -2.993356 -1.367957 -22.53149 -4.90412 -0 22.88159 -0 -6.763262 -8.89918 18.62041 -2.148392 0.3840635 8.006975 -1.09029 9.247201 -2.699296 2.539579 22.1406 4.455049 1.942103 -16.2528 6.44595 1.003384 -20.80194 10.53423 80.59042 21.21798 -3.951219 -0 0 24.52823 -23.05509 9.660378 13.5312 3.963496 -14.25971 -2.500685 -93.14859 22.77123 24.43688 0 0 -7.805758 -2.180272 6.639772 16.03869
1820.254 98.28947 2682.377 7.530937 -2.435227 58.55781 0.5993904 16.4238 4.909375 -0 37.94046 -0 3.591565 -5.720424 -3.503038 -2.496538 -20.23416 -5.716449 -0 23.60371 -0 -6.270424 -9.230063 18.37907 -2.614695 0.2272092 7.63663 -1.176767 9.413424 -2.789111 2.558548 22.31686 4.528865 1.968412 -16.3377 6.562232 1.166449 -20.31154 10.46916 81.41425 21.51961 -4.640387 -0 0 23.16598 -23.28674 9.774567 13.64317 3.737243 -14.22734 -2.677744 -92.79395 22.89363 23.96926 0 0 -7.245744 -2.054206 6.866164 15.93815
1826.804 98.86331 2685.058 8.125231 -2.42187 59.03541 0.09103918 14.91132 4.664804 -0 43.17763 -0 3.405009 -2.887235 -4.173934 -3.535631 -17.45111 -6.446796 -0 24.24232 -0 -5.740587 -9.687519 18.1641 -3.001142 0.1635044 7.151842 -1.191762 9.656837 -2.975916 2.546279 22.5276 4.576655 1.94342 -16.35865 6.644424 1.310204 -19.80598 10.45104 82.39593 21.55194 -5.566434 -0 0 21.70073 -23.26777 9.712818 13.67078 3.529063 -14.29501 -2.954157 -92.30716 22.98636 23.23137 0 0 -6.951822 -1.873836 7.010298 15.75894
